<svg xmlns="http://www.w3.org/2000/svg" width="437.57" height="520.577" viewBox="0 0 437.57 520.577">
  <path id="Path_529" data-name="Path 529" d="M157.149,160.783C210.4,139.772,275.181,135.4,376.588,86.375L373.665,299.1c1.168,54.275-26.26,102.714-68.134,131.162-38.227,20.281-162.971,46.255-162.1-72.072.586-89.731,135.4-136.854,135.4-136.854S95.289,209.8,85.511,378.468C43.489,304.35,60.562,198.862,157.149,160.783M437.423,0l-.434.291C336.316,46.832,230.246,65.512,135.266,100.816-85.923,182.957-20.264,516.929,219.3,520.576,357.179,521.01,445.738,400.79,436.693,282.9c.586,6.417.877,12.839.877,19.552V0Z" transform="translate(0)" fill="#f9f9f9"/>
</svg>
